<?xml version="1.0" encoding="UTF-8"?>
<svg id="Layer_1" xmlns="http://www.w3.org/2000/svg" version="1.1" viewBox="0 0 423.91 43.3">
  <!-- Generator: Adobe Illustrator 30.4.0, SVG Export Plug-In . SVG Version: 2.1.4 Build 226)  -->
  <defs>
    <style>
      .st0 {
        fill: #fff;
      }
    </style>
  </defs>
  <polygon class="st0" points="136.82 22.28 122.87 1 110.08 1 110.08 42.05 121.69 42.05 121.69 19.75 136.36 41.91 136.7 42.05 148.43 42.05 148.43 1 136.82 1 136.82 22.28"/>
  <path class="st0" d="M169.56,1.01h-16.13v41.04h16.13c9.81,0,20.32-7.52,20.32-20.52S179.37,1.01,169.56,1.01ZM168.01,32.69h-2.69V10.88h2.69c3.19,0,10.81,1.76,10.81,10.65s-6.71,11.16-10.81,11.16Z"/>
  <path class="st0" d="M93.94,1h-10.91l-14.14,41.06h11.83l2.29-6.42h12.11l2.29,6.42h10.65L93.94,1ZM85.75,26.45l3.28-11.94,2.73,11.94h-6.01Z"/>
  <path class="st0" d="M29.03,19.97c1.06-1.86,1.68-4,1.68-6.29,0-7-5.68-12.68-12.68-12.68H0v41.06h20.43s.08,0,.13,0c7,0,12.68-5.68,12.68-12.68,0-3.74-1.63-7.09-4.21-9.41ZM10.69,10.75h7.02c1.75,0,3.17,1.42,3.17,3.17s-1.42,3.17-3.17,3.17h-7.02v-6.33ZM19.44,32.63h-8.75v-6.5h8.74s0,0,0,0c1.8,0,3.25,1.46,3.25,3.25s-1.46,3.25-3.25,3.25Z"/>
  <path class="st0" d="M61.14,26.41c3.59-2.14,7.04-6.09,7.04-11.76,0-8.23-7.46-13.66-13.99-13.66h-17.61v41.06h11.61v-13.74h2.44l6.96,13.74h12.04l-8.49-15.64ZM52.44,19.19h-4.24v-9.15h4.24c3.61,0,5.3,2.5,5.3,4.58s-1.34,4.58-5.3,4.58Z"/>
  <polygon class="st0" points="324.61 16.69 312.26 16.69 312.26 10.75 329.16 10.75 329.16 1 300.68 1 300.68 42.05 312.26 42.05 312.26 26.48 324.61 26.48 324.61 16.69"/>
  <polygon class="st0" points="423.91 10.75 423.91 1 395.43 1 395.43 42.05 423.91 42.05 423.91 32.3 407 32.3 407 26.48 419.36 26.48 419.36 16.57 407 16.57 407 10.75 423.91 10.75"/>
  <path class="st0" d="M347.92,1h-10.91l-14.14,41.06h11.83l2.29-6.42h12.11l2.29,6.42h10.65L347.92,1ZM339.73,26.45l3.28-11.94,2.73,11.94h-6.01Z"/>
  <path class="st0" d="M388.84,29c-2.02,2.27-4.96,3.7-8.24,3.7-6.11,0-11.06-4.95-11.06-11.06s4.95-11.06,11.06-11.06c3.27,0,6.2,1.43,8.23,3.69l2.68-11.34C388.3,1.08,384.58,0,380.6,0c-11.96,0-21.65,9.69-21.65,21.65s9.69,21.65,21.65,21.65c3.99,0,7.73-1.08,10.94-2.97l-2.7-11.33Z"/>
  <path class="st0" d="M290.13,26.41c3.59-2.14,7.04-6.09,7.04-11.76,0-8.23-7.46-13.66-13.99-13.66h-17.61v41.06h11.61v-13.74h2.44l6.96,13.74h12.04l-8.49-15.64ZM281.43,19.19h-4.24v-9.15h4.24c3.61,0,5.3,2.5,5.3,4.58s-1.34,4.58-5.3,4.58Z"/>
  <path class="st0" d="M249.04,27.61c0,3.2-2.96,5.17-5.66,5.17s-5.66-1.44-5.66-5.17V1.05h-11.9v24.71c0,14.76,10.73,17.51,17.55,17.51s17.55-2.49,17.55-17.51V1.05h-11.9v26.56Z"/>
  <path class="st0" d="M212.29,17.66c-2.8-.74-5.48-1.34-7.83-2.11-.74-.24-2.9-1.23-2.05-3.53.53-1.43,1.81-2.21,5.98-1.51,2.8.47,5.59,1.25,8.32,2.53,0,0,.65.29,1.48.72l2.48-10.51c-3.2-1.44-6.5-2.4-10.06-2.92-12.92-1.87-17.23,4.39-18.65,8.29-2.96,8.13,2.22,14.59,8.88,16.77,2.78.91,5.79,1.6,8.69,2.35,2.98.77,2.95,2.43,2.7,3.17-.92,2.77-6.65,1.77-7.3,1.65-3.36-.63-7.08-1.87-9.95-3.31,0,0-.78-.39-1.7-.91l-2.5,10.59c3.63,1.7,7.93,3.09,11.98,3.86,1.76.33,3.45.49,5.06.49,7.37,0,13.01-3.37,14.96-9.26,1.1-3.32.77-6.61-.94-9.52-2.3-3.91-6.16-5.97-9.54-6.86Z"/>
</svg>